<svg xmlns="http://www.w3.org/2000/svg" width="24" height="24" fill="none" stroke="currentColor" stroke-width="2" stroke-linecap="round" stroke-linejoin="round" style=""><rect id="backgroundrect" width="100%" height="100%" x="0" y="0" fill="none" stroke="none"/><g class="currentLayer" style=""><title>Layer 1</title><path d="M19 21l-7-5-7 5V5a2 2 0 0 1 2-2h10a2 2 0 0 1 2 2z" id="svg_1" class="" fill="none"/><path d="M19,21 l-7,-5 l-7,5 V5 a2,2 0 0 1 2,-2 h10 a2,2 0 0 1 2,2 z" class="selected" fill="none" id="svg_2" stroke="#f8f9fa" stroke-opacity="1"/><path fill="#f8f9fa" stroke="#f8f9fa" stroke-width="1" stroke-linejoin="round" stroke-dashoffset="" fill-rule="nonzero" marker-start="" marker-mid="" marker-end="" id="svg_3" d="M9.38561345421277,9.041226347563942 L11.387769688721693,9.041226347563942 L12.0064513714904,7.139186297390218 L12.625133406049423,9.041226347563942 L14.627289288767988,9.041226347563942 L13.00751383407541,10.21673829004397 L13.626227529763637,12.118778340217673 L12.0064513714904,10.943234384818194 L10.386675565007462,12.118778340217673 L11.005389436590862,10.21673829004397 L9.38561345421277,9.041226347563942 z" style="color: rgb(0, 0, 0);" class="selected" stroke-opacity="1" fill-opacity="1"/></g></svg>